<svg xmlns="http://www.w3.org/2000/svg" xmlns:xlink="http://www.w3.org/1999/xlink" width="500" zoomAndPan="magnify" viewBox="0 0 375 374.999991" height="500" preserveAspectRatio="xMidYMid meet" version="1.0"><defs><clipPath id="968d2b5a2b"><path d="M 54.203125 0.347656 L 320.453125 0.347656 L 320.453125 374.644531 L 54.203125 374.644531 Z M 54.203125 0.347656 " clip-rule="nonzero"/></clipPath><clipPath id="04cdea45c9"><path d="M 171.464844 284.171875 L 203.714844 284.171875 L 203.714844 352 L 171.464844 352 Z M 171.464844 284.171875 " clip-rule="nonzero"/></clipPath></defs><g clip-path="url(#968d2b5a2b)"><path fill="#dbc9b0" d="M 84.558594 112.8125 C 117.425781 101.800781 151.933594 95.792969 186.742188 95.179688 C 188.726562 95.144531 190.707031 95.128906 192.6875 95.128906 C 226.726562 95.128906 260.582031 100.277344 292.996094 110.261719 L 302.671875 100.585938 L 320.800781 0.347656 L 281.339844 0.347656 L 281.339844 35.539062 L 253.617188 35.539062 L 253.617188 0.347656 L 225.890625 0.347656 L 225.890625 35.539062 L 204.5625 35.539062 L 204.5625 0.347656 L 170.441406 0.347656 L 170.441406 35.539062 L 149.113281 35.539062 L 149.113281 0.347656 L 121.386719 0.347656 L 121.386719 35.539062 L 93.660156 35.539062 L 93.660156 0.347656 L 54.203125 0.347656 L 72.332031 100.585938 Z M 187.023438 111.171875 C 155.109375 111.734375 123.457031 117.054688 93.207031 126.804688 L 70.199219 374.644531 L 151.183594 374.644531 L 151.183594 304.34375 C 151.183594 284.285156 167.445312 268.027344 187.5 268.027344 C 207.558594 268.027344 223.816406 284.285156 223.816406 304.34375 L 223.816406 374.644531 L 304.800781 374.644531 L 281.492188 123.539062 C 250.867188 114.832031 218.996094 110.613281 187.023438 111.171875 " fill-opacity="1" fill-rule="nonzero"/></g><g clip-path="url(#04cdea45c9)"><path fill="#dbc9b0" d="M 195.976562 310.058594 C 199.398438 307.351562 201.390625 303.363281 201.390625 298.945312 C 201.390625 291.25 195.121094 284.980469 187.570312 284.980469 C 180.015625 284.980469 173.605469 291.25 173.605469 298.945312 C 173.605469 303.21875 175.597656 307.210938 179.019531 310.058594 L 171.609375 350.246094 C 171.464844 350.671875 171.609375 351.097656 171.894531 351.382812 C 172.179688 351.667969 172.605469 351.953125 173.035156 351.953125 L 201.960938 351.953125 C 202.390625 351.953125 202.816406 351.8125 203.101562 351.382812 C 203.386719 350.957031 203.527344 350.671875 203.386719 350.246094 Z M 195.976562 310.058594 " fill-opacity="1" fill-rule="nonzero"/></g><path stroke-linecap="butt" transform="matrix(0.75, -0.000000000000000372, 0.000000000000000372, 0.75, 137.046382, 368.821793)" fill="none" stroke-linejoin="miter" d="M 0.000657466 3.998027 L 216.235047 3.998027 " stroke="#dbc9b0" stroke-width="8" stroke-opacity="1" stroke-miterlimit="4"/></svg>