<svg xmlns="http://www.w3.org/2000/svg" xmlns:xlink="http://www.w3.org/1999/xlink" width="500" zoomAndPan="magnify" viewBox="0 0 375 374.999991" height="500" preserveAspectRatio="xMidYMid meet" version="1.0"><defs><clipPath id="ef80f04ab3"><path d="M 54.203125 0.359375 L 320.453125 0.359375 L 320.453125 374.632812 L 54.203125 374.632812 Z M 54.203125 0.359375 " clip-rule="nonzero"/></clipPath><clipPath id="7c35c9eeee"><path d="M 171.464844 284.171875 L 203.339844 284.171875 L 203.339844 352 L 171.464844 352 Z M 171.464844 284.171875 " clip-rule="nonzero"/></clipPath></defs><g clip-path="url(#ef80f04ab3)"><path fill="#dbc9b0" d="M 84.554688 112.816406 C 117.421875 101.804688 151.925781 95.796875 186.734375 95.1875 C 188.71875 95.148438 190.695312 95.132812 192.679688 95.132812 C 226.714844 95.132812 260.570312 100.285156 292.980469 110.269531 L 302.652344 100.589844 L 320.78125 0.359375 L 281.328125 0.359375 L 281.328125 35.546875 L 253.605469 35.546875 L 253.605469 0.359375 L 225.878906 0.359375 L 225.878906 35.546875 L 204.554688 35.546875 L 204.554688 0.359375 L 170.433594 0.359375 L 170.433594 35.546875 L 149.105469 35.546875 L 149.105469 0.359375 L 121.378906 0.359375 L 121.378906 35.546875 L 93.65625 35.546875 L 93.65625 0.359375 L 54.203125 0.359375 L 72.332031 100.589844 Z M 187.015625 111.179688 C 155.101562 111.738281 123.449219 117.0625 93.203125 126.808594 L 70.199219 374.632812 L 151.179688 374.632812 L 151.179688 304.335938 C 151.179688 284.28125 167.4375 268.019531 187.492188 268.019531 C 207.546875 268.019531 223.804688 284.28125 223.804688 304.335938 L 223.804688 374.632812 L 304.785156 374.632812 L 281.480469 123.542969 C 250.855469 114.839844 218.984375 110.617188 187.015625 111.179688 " fill-opacity="1" fill-rule="nonzero"/></g><g clip-path="url(#7c35c9eeee)"><path fill="#dbc9b0" d="M 195.96875 310.058594 C 199.386719 307.351562 201.378906 303.363281 201.378906 298.949219 C 201.378906 291.257812 195.113281 284.988281 187.5625 284.988281 C 180.011719 284.988281 173.601562 291.257812 173.601562 298.949219 C 173.601562 303.222656 175.597656 307.210938 179.015625 310.058594 L 171.609375 350.230469 C 171.464844 350.65625 171.609375 351.085938 171.894531 351.371094 C 172.179688 351.652344 172.605469 351.9375 173.035156 351.9375 L 201.949219 351.9375 C 202.378906 351.9375 202.804688 351.796875 203.089844 351.371094 C 203.375 350.941406 203.515625 350.65625 203.375 350.230469 Z M 195.96875 310.058594 " fill-opacity="1" fill-rule="nonzero"/></g><path stroke-linecap="butt" transform="matrix(1.875, 0.000000000000001314, -0.000000000000001314, 1.875, 147.100819, 369.009264)" fill="none" stroke-linejoin="miter" d="M 0.000396618 1.499226 L 81.131652 1.499226 " stroke="#dbc9b0" stroke-width="3" stroke-opacity="1" stroke-miterlimit="4"/></svg>